<?xml version="1.0" encoding="utf-8"?>
<!-- Generator: Adobe Illustrator 15.0.0, SVG Export Plug-In . SVG Version: 6.00 Build 0)  -->
<!DOCTYPE svg PUBLIC "-//W3C//DTD SVG 1.1//EN" "http://www.w3.org/Graphics/SVG/1.1/DTD/svg11.dtd">
<svg version="1.1" id="Layer_1" xmlns="http://www.w3.org/2000/svg" xmlns:xlink="http://www.w3.org/1999/xlink" x="0px" y="0px"
	 width="64px" height="64px" viewBox="0 0 64 64" enable-background="new 0 0 64 64" xml:space="preserve">
<g>
	<path fill="none" d="M31.649,1.5c-16.8,0-30.533,13.7-30.533,30.499c0,16.836,13.698,30.534,30.533,30.534
		c16.8-0.033,30.533-13.733,30.5-30.501C62.184,15.2,48.449,1.5,31.649,1.5z"/>
	<path d="M31.649,0c-17.645,0-32,14.355-32,32c0,17.6,14.4,32,32,32s32-14.355,32-32.001C63.649,14.4,49.249,0,31.649,0z
		 M31.649,62.533c-16.835,0-30.533-13.698-30.533-30.534C1.116,15.2,14.85,1.5,31.649,1.5s30.534,13.7,30.5,30.532
		C62.183,48.8,48.449,62.5,31.649,62.533z"/>
</g>
<path d="M51.094,12.598c-4.045,3.195-8.728,5.701-14.198,7.58l-0.489,0.168l-0.497-1.625l0.456-0.158
	c5.206-1.801,9.646-4.168,13.462-7.15C44.98,7.125,38.612,4.519,31.633,4.519c-5.452,0-10.528,1.594-14.802,4.332h14.53v1.67H14.5
	C8.195,15.557,4.151,23.304,4.151,32c0,7.365,2.902,14.048,7.619,18.981l0.78-28.841h1.722l-0.824,30.456
	c4.846,4.281,11.209,6.885,18.185,6.885c15.178,0,27.481-12.304,27.481-27.481C59.114,24.426,56.05,17.568,51.094,12.598z
	 M35.482,34.791c7.923-2.861,14.26-7.062,19.37-12.842l0.353-0.398l1.225,1.227l-0.314,0.352
	c-5.395,6.039-11.966,10.381-20.089,13.273l-0.492,0.176l-0.5-1.625L35.482,34.791z M29.198,55.749h-1.67V31.517h1.67V55.749z
	 M29.198,29.58h-1.67v-7.439h1.67V29.58z M32.134,19.071H21.316v36.678h-1.722V19.071H8.777v-1.669h23.356V19.071z M33.617,54.118
	l-0.438,0.171l-0.728-1.581l0.497-0.192c9.227-3.561,16.991-9.108,23.078-16.49l0.313-0.38l1.298,1.039l-0.327,0.392
	C50.888,44.774,42.916,50.508,33.617,54.118z"/>
</svg>
